<?xml version="1.0" standalone="no"?>
<!DOCTYPE svg PUBLIC "-//W3C//DTD SVG 20010904//EN"
 "http://www.w3.org/TR/2001/REC-SVG-20010904/DTD/svg10.dtd">
<svg version="1.0" xmlns="http://www.w3.org/2000/svg"
 width="198.000000pt" height="85.000000pt" viewBox="0 0 198.000000 85.000000"
 preserveAspectRatio="xMidYMid meet">
<metadata>
Created by potrace 1.15, written by Peter Selinger 2001-2017
</metadata>
<g transform="translate(0.000000,85.000000) scale(0.100000,-0.100000)"
fill="#003366" stroke="none">
<path d="M210 720 c-7 -13 -10 -111 -10 -272 1 -252 1 -253 -22 -271 l-22 -19
38 -34 c30 -27 42 -32 56 -24 18 10 19 29 20 311 0 304 -2 329 -36 329 -7 0
-18 -9 -24 -20z"/>
<path d="M708 729 c-15 -9 -18 -26 -18 -119 0 -61 -2 -110 -5 -110 -4 0 -20 7
-37 16 -42 22 -117 22 -155 -1 -47 -28 -76 -87 -70 -142 6 -55 23 -76 24 -30
0 17 1 39 2 48 2 27 49 66 93 77 53 14 98 -5 128 -53 16 -26 20 -50 20 -127 0
-120 -4 -125 -115 -126 -101 -2 -153 12 -193 49 -37 35 -41 30 -10 -14 65 -92
158 -122 253 -82 35 14 40 14 56 -1 9 -8 28 -14 41 -12 l23 3 0 314 c0 201 -4
315 -10 317 -5 2 -18 -1 -27 -7z"/>
<path d="M138 663 l-38 -39 0 -205 c0 -217 2 -229 47 -229 15 0 24 7 28 22 3
13 4 128 3 256 l-3 233 -37 -38z"/>
<path d="M970 521 c-51 -26 -80 -74 -80 -130 1 -47 21 -88 38 -77 7 4 6 17 -1
36 -10 26 -9 37 8 68 25 46 64 66 114 57 27 -4 42 -14 54 -35 29 -49 18 -94
-37 -143 -25 -22 -15 -33 16 -16 12 7 33 12 45 10 50 -6 70 122 28 185 -19 29
-87 63 -125 64 -14 0 -41 -8 -60 -19z"/>
<path d="M1372 528 c-6 -8 -11 -79 -11 -173 -1 -157 -2 -160 -26 -182 -19 -17
-21 -23 -11 -32 7 -6 16 -7 20 -3 4 4 6 1 4 -6 -1 -8 7 -20 18 -28 19 -13 24
-13 38 1 14 14 16 45 16 214 0 140 -3 200 -12 209 -15 15 -23 15 -36 0z"/>
<path d="M1665 529 c-40 -12 -58 -27 -84 -69 -25 -42 -27 -106 -4 -135 14 -18
15 -18 9 -1 -9 27 11 89 36 113 38 34 84 45 124 28 19 -8 34 -11 34 -7 0 4 11
-11 25 -33 21 -35 24 -52 25 -137 0 -75 -4 -100 -16 -112 -18 -18 -55 -21 -71
-5 -8 8 -17 8 -31 0 -49 -26 -141 -4 -196 47 l-28 27 15 -31 c19 -37 78 -91
116 -105 39 -15 102 -13 146 5 34 15 40 15 55 1 23 -21 57 -19 70 4 15 30 12
219 -5 277 -28 95 -134 159 -220 133z"/>
<path d="M395 473 c-55 -57 -66 -131 -29 -205 34 -67 129 -103 196 -75 32 14
37 13 52 -1 13 -13 20 -14 34 -6 13 9 18 28 20 94 3 97 -9 135 -49 155 -54 28
-114 13 -140 -36 -9 -19 -9 -19 10 -10 79 43 154 -64 84 -119 -38 -30 -95 -22
-136 19 -41 41 -49 121 -18 181 11 22 19 40 16 40 -2 0 -20 -16 -40 -37z"/>
<path d="M1302 477 l-33 -34 3 -123 c3 -104 6 -125 20 -134 14 -8 21 -7 33 5
13 13 15 41 13 168 l-3 152 -33 -34z"/>
<path d="M1542 481 c-18 -16 -36 -41 -42 -55 -14 -38 -12 -111 4 -149 31 -75
132 -117 201 -84 29 14 34 14 49 -1 13 -13 20 -14 34 -6 25 16 30 166 7 210
-37 70 -139 72 -176 3 -9 -19 -9 -19 10 -10 50 27 111 -7 111 -63 0 -36 -41
-76 -77 -76 -98 1 -153 117 -103 215 11 21 18 40 16 42 -2 2 -17 -10 -34 -26z"/>
<path d="M864 475 c-30 -30 -54 -84 -54 -122 0 -72 69 -149 155 -172 57 -16
80 -14 136 10 44 19 50 25 47 48 -3 30 -23 32 -95 10 -23 -7 -45 -10 -49 -6
-4 4 16 34 44 66 55 63 65 97 35 123 -27 23 -51 28 -79 18 l-26 -10 22 -18
c16 -13 21 -24 16 -38 -9 -31 -92 -108 -106 -99 -7 4 -21 28 -32 52 -22 49
-19 99 8 141 19 29 9 28 -22 -3z"/>
<path d="M1175 217 c-9 -22 -67 -52 -118 -61 -51 -9 -138 9 -182 40 -44 30
-49 30 -34 2 19 -37 57 -70 70 -62 7 4 9 3 5 -4 -19 -31 115 -50 192 -27 43
13 112 59 112 74 0 5 -9 19 -19 32 -18 22 -20 22 -26 6z"/>
</g>
</svg>
